<svg xmlns="http://www.w3.org/2000/svg" width="96" height="96" viewBox="0 0 32 32"><ellipse cx="16" cy="26" rx="10" ry="2.6" fill="#00000026" stroke="none"/><path d="M16 8c4 2 3 5 1 6 5 1 6 5 2 6 6 1 7 6 1 7-7 1-13 0-13-3 0-3 3-4 5-4-4-1-3-5 1-6-3-2-1-5 3-6Z" fill="#ef6ab0" stroke="#8e2f63" stroke-width="1.3" stroke-linejoin="round"/><path d="M12 15c3 1 6 1 8 0M9 21c5 2 11 2 15 0" fill="none" stroke="#ffb3da" stroke-width="1.4" stroke-linecap="round"/><path d="M14 11c2 1 3 1 4 0" fill="none" stroke="#ffd2e8" stroke-width="1.2" stroke-linecap="round"/></svg>
