<svg xmlns="http://www.w3.org/2000/svg" width="512" height="512" viewBox="0 0 512 512"><defs><linearGradient id="base" x2=".7" y2="1"><stop stop-color="#fff6db"/><stop offset=".5" stop-color="#f2bca2"/><stop offset="1" stop-color="#bd6545"/></linearGradient><pattern id="lines" width="8" height="8" patternUnits="userSpaceOnUse"><path d="M0 8L8 0" stroke="#85432d" stroke-opacity=".045"/></pattern></defs><path fill="#142c39" d="M0 0h512v512H0z"/><path fill="url(#base)" d="M28 18h456l10 10v456l-10 10H28l-10-10V28z"/><path fill="url(#lines)" d="M28 28h456v456H28z"/><path fill="#fffbe9" opacity=".4" d="M36 36h440v170L36 386z"/><path fill="#85432d" opacity=".12" d="M36 401l440-163v238H36z"/><path d="M64 308h384" stroke="#85432d" stroke-opacity=".24" stroke-width="2"/><g fill="#85432d" stroke="#85432d" stroke-linejoin="round" stroke-linecap="round"><path d="M256 96l82 29v68c0 38-40 66-82 85-42-19-82-47-82-85v-68z" fill="none" stroke-width="10"/><path d="M256 128l16 33 36 5-26 26 6 36-32-17-32 17 6-36-26-26 36-5z"/></g><g fill="none" stroke="#85432d" opacity=".25"><circle cx="256" cy="186" r="123"/><circle cx="256" cy="186" r="132" stroke-dasharray="2 12"/></g><g fill="#142c39" text-anchor="middle" font-family="Microsoft JhengHei, Noto Sans TC, sans-serif" font-weight="700"><text x="256" y="389" font-size="65" letter-spacing="3">頭銜賽</text></g><g fill="#85432d" opacity=".72"><path d="M169 424h174v3H169zM227 444h58v4h-58z"/></g><g fill="none" stroke="#142c39" stroke-width="3"><path d="M39 88V39h49m336 0h49v49M39 424v49h49m336 0h49v-49"/></g><g fill="#fff9e3"><circle cx="38" cy="38" r="3"/><circle cx="474" cy="38" r="3"/><circle cx="38" cy="474" r="3"/><circle cx="474" cy="474" r="3"/></g></svg>
